<?xml version="1.0" encoding="UTF-8" standalone="no"?>
<!DOCTYPE svg PUBLIC "-//W3C//DTD SVG 1.1//EN" "http://www.w3.org/Graphics/SVG/1.1/DTD/svg11.dtd">
<svg width="100%" height="100%" viewBox="0 0 289 35" version="1.1" xmlns="http://www.w3.org/2000/svg" xmlns:xlink="http://www.w3.org/1999/xlink"
  xml:space="preserve" xmlns:serif="http://www.serif.com/" style="fill-rule:evenodd;clip-rule:evenodd;stroke-linejoin:round;stroke-miterlimit:1.41421;">
  <g>
    <g>
      <path d="M5.034,33.392l-4.914,0c0.088,-0.756 0.163,-1.676 0.225,-2.762c0.061,-1.086 0.11,-1.972 0.145,-2.659c0.035,-0.687 0.053,-1.148 0.053,-1.382l0,-26.469l4.914,0l0,14.245c1.075,-1.306 2.083,-2.254 3.026,-2.845c0.942,-0.591 1.972,-1.038 3.091,-1.34c1.118,-0.302 2.294,-0.453 3.527,-0.453c2.237,0 4.289,0.477 6.157,1.432c1.867,0.955 3.32,2.381 4.359,4.278c1.04,1.896 1.559,4.027 1.559,6.39c0,3.505 -1.083,6.415 -3.25,8.731c-2.166,2.316 -5.187,3.473 -9.063,3.473c-1.268,0 -2.457,-0.14 -3.566,-0.422c-1.11,-0.282 -2.101,-0.701 -2.973,-1.258c-0.872,-0.556 -1.827,-1.549 -2.867,-2.979l-0.158,1.67c-0.071,0.921 -0.159,1.704 -0.265,2.35Zm0.423,-11.503c0,2.611 0.722,4.755 2.167,6.432c1.444,1.677 3.47,2.515 6.077,2.515c2.396,0 4.386,-0.742 5.971,-2.226c1.586,-1.485 2.378,-3.704 2.378,-6.659c0,-3.449 -0.81,-5.844 -2.431,-7.184c-1.62,-1.34 -3.549,-2.01 -5.786,-2.01c-1.568,0 -3.025,0.368 -4.373,1.103c-1.347,0.735 -2.351,1.828 -3.012,3.278c-0.66,1.449 -0.991,3.033 -0.991,4.751Z"
        style="fill:#e83434;fill-rule:nonzero;stroke:#e83434;stroke-width:0.24px;" />
      <rect x="33.517" y="0.12" width="4.914" height="33.272" style="fill:#e83434;fill-rule:nonzero;stroke:#e83434;stroke-width:0.24px;" />
      <path d="M65.092,10.366l4.914,0l0,23.026l-4.914,0l0,-4.02c-1.022,1.237 -2.026,2.165 -3.012,2.783c-0.987,0.619 -2,1.086 -3.039,1.402c-1.039,0.316 -2.175,0.474 -3.408,0.474c-2.731,0 -5.047,-0.601 -6.949,-1.803c-1.903,-1.203 -2.854,-3.625 -2.854,-7.267l0,-14.595l4.915,0l0,12.987c0,3.367 0.572,5.401 1.717,6.102c1.145,0.701 2.563,1.051 4.254,1.051c1.462,0 2.84,-0.333 4.135,-1c1.295,-0.666 2.325,-1.601 3.091,-2.803c0.767,-1.203 1.15,-2.876 1.15,-5.02l0,-11.317Z"
        style="fill:#e83434;fill-rule:nonzero;stroke:#e83434;stroke-width:0.24px;" />
      <path d="M97.089,27.476l4.914,0l0,0.206c0,1.017 -0.519,2.055 -1.559,3.113c-1.039,1.058 -2.413,1.862 -4.121,2.412c-1.709,0.55 -3.673,0.824 -5.893,0.824c-4.491,0 -7.957,-1.133 -10.397,-3.401c-2.439,-2.268 -3.659,-5.133 -3.659,-8.596c0,-3.546 1.29,-6.484 3.871,-8.813c2.58,-2.33 5.905,-3.494 9.974,-3.494c2.237,0 4.263,0.377 6.077,1.133c1.814,0.756 3.25,1.935 4.307,3.536c1.057,1.601 1.585,3.831 1.585,6.689l0,1.278l-20.952,0c0,2.46 0.85,4.488 2.549,6.082c1.7,1.594 4.056,2.391 7.068,2.391c2.167,0 3.748,-0.326 4.743,-0.979c0.995,-0.653 1.493,-1.378 1.493,-2.175l0,-0.206Zm-15.536,-7.999l15.932,0l0,-0.453c0,-1.072 -0.33,-2.113 -0.991,-3.123c-0.66,-1.01 -1.572,-1.759 -2.734,-2.247c-1.163,-0.488 -2.519,-0.732 -4.069,-0.732c-1.832,0 -3.523,0.574 -5.073,1.721c-1.55,1.148 -2.572,2.759 -3.065,4.834Z"
        style="fill:#e83434;fill-rule:nonzero;stroke:#e83434;stroke-width:0.24px;" />
      <path d="M113.867,33.392l-4.915,0l0,-33.272l4.915,0l0,14.224c1.039,-1.25 2.047,-2.178 3.025,-2.783c0.978,-0.604 1.999,-1.061 3.065,-1.371c1.066,-0.309 2.25,-0.463 3.554,-0.463c1.849,0 3.51,0.295 4.98,0.886c1.471,0.591 2.612,1.46 3.422,2.608c0.81,1.147 1.215,2.985 1.215,5.514l0,14.657l-4.914,0l0,-13.008c0,-2.061 -0.176,-3.521 -0.528,-4.38c-0.353,-0.859 -1.022,-1.533 -2.009,-2.021c-0.986,-0.487 -2.113,-0.731 -3.382,-0.731c-1.444,0 -2.818,0.329 -4.121,0.989c-1.304,0.66 -2.348,1.581 -3.131,2.763c-0.784,1.181 -1.176,2.872 -1.176,5.071l0,11.317Z"
        style="fill:#e83434;fill-rule:nonzero;stroke:#e83434;stroke-width:0.24px;" />
      <path d="M159.815,27.476l4.914,0l0,0.206c0,1.017 -0.519,2.055 -1.559,3.113c-1.039,1.058 -2.413,1.862 -4.122,2.412c-1.708,0.55 -3.672,0.824 -5.892,0.824c-4.491,0 -7.957,-1.133 -10.397,-3.401c-2.439,-2.268 -3.659,-5.133 -3.659,-8.596c0,-3.546 1.29,-6.484 3.871,-8.813c2.58,-2.33 5.905,-3.494 9.974,-3.494c2.237,0 4.263,0.377 6.077,1.133c1.814,0.756 3.25,1.935 4.307,3.536c1.057,1.601 1.585,3.831 1.585,6.689l0,1.278l-20.953,0c0,2.46 0.85,4.488 2.55,6.082c1.7,1.594 4.056,2.391 7.068,2.391c2.167,0 3.748,-0.326 4.743,-0.979c0.995,-0.653 1.493,-1.378 1.493,-2.175l0,-0.206Zm-15.536,-7.999l15.932,0l0,-0.453c0,-1.072 -0.33,-2.113 -0.991,-3.123c-0.66,-1.01 -1.572,-1.759 -2.734,-2.247c-1.163,-0.488 -2.519,-0.732 -4.069,-0.732c-1.832,0 -3.523,0.574 -5.074,1.721c-1.55,1.148 -2.571,2.759 -3.064,4.834Z"
        style="fill:#e83434;fill-rule:nonzero;stroke:#e83434;stroke-width:0.24px;" />
      <rect x="171.678" y="0.12" width="4.914" height="33.272" style="fill:#e83434;fill-rule:nonzero;stroke:#e83434;stroke-width:0.24px;" />
      <path d="M193.133,33.392l-12.022,-23.026l5.284,0l9.459,18.058l9.671,-18.058l4.888,0l-12.366,23.026l-4.914,0Z"
        style="fill:#e83434;fill-rule:nonzero;stroke:#e83434;stroke-width:0.24px;" />
      <path d="M234.219,27.476l4.915,0l0,0.206c0,1.017 -0.52,2.055 -1.559,3.113c-1.04,1.058 -2.414,1.862 -4.122,2.412c-1.709,0.55 -3.673,0.824 -5.892,0.824c-4.492,0 -7.958,-1.133 -10.397,-3.401c-2.44,-2.268 -3.66,-5.133 -3.66,-8.596c0,-3.546 1.29,-6.484 3.871,-8.813c2.581,-2.33 5.905,-3.494 9.974,-3.494c2.237,0 4.263,0.377 6.077,1.133c1.815,0.756 3.25,1.935 4.307,3.536c1.057,1.601 1.586,3.831 1.586,6.689l0,1.278l-20.953,0c0,2.46 0.85,4.488 2.55,6.082c1.699,1.594 4.055,2.391 7.067,2.391c2.167,0 3.748,-0.326 4.743,-0.979c0.995,-0.653 1.493,-1.378 1.493,-2.175l0,-0.206Zm-15.536,-7.999l15.932,0l0,-0.453c0,-1.072 -0.33,-2.113 -0.99,-3.123c-0.661,-1.01 -1.573,-1.759 -2.735,-2.247c-1.163,-0.488 -2.519,-0.732 -4.069,-0.732c-1.832,0 -3.523,0.574 -5.073,1.721c-1.55,1.148 -2.572,2.759 -3.065,4.834Z"
        style="fill:#e83434;fill-rule:nonzero;stroke:#e83434;stroke-width:0.24px;" />
      <path d="M264.129,30.135l0,3.216c-2.396,0.454 -4.228,0.68 -5.496,0.68c-1.832,0 -3.483,-0.288 -4.954,-0.865c-1.471,-0.578 -2.589,-1.416 -3.356,-2.515c-0.766,-1.1 -1.149,-2.852 -1.149,-5.257l0,-11.833l-5.126,0l0,-3.195l5.126,0l0,-5.443l4.914,0l0,5.443l8.614,0l0,3.195l-8.614,0l0,10.74c0,2.034 0.203,3.446 0.608,4.237c0.405,0.79 1.044,1.37 1.916,1.742c0.872,0.371 1.915,0.556 3.131,0.556c0.969,0 2.431,-0.234 4.386,-0.701Z"
        style="fill:#e83434;fill-rule:nonzero;stroke:#e83434;stroke-width:0.24px;" />
      <path d="M288.12,30.135l0,3.216c-2.396,0.454 -4.228,0.68 -5.496,0.68c-1.832,0 -3.483,-0.288 -4.954,-0.865c-1.471,-0.578 -2.589,-1.416 -3.356,-2.515c-0.766,-1.1 -1.149,-2.852 -1.149,-5.257l0,-11.833l-5.126,0l0,-3.195l5.126,0l0,-5.443l4.915,0l0,5.443l8.613,0l0,3.195l-8.613,0l0,10.74c0,2.034 0.202,3.446 0.607,4.237c0.405,0.79 1.044,1.37 1.916,1.742c0.872,0.371 1.916,0.556 3.131,0.556c0.969,0 2.431,-0.234 4.386,-0.701Z"
        style="fill:#e83434;fill-rule:nonzero;stroke:#e83434;stroke-width:0.24px;" />
    </g>
  </g>
</svg>
