<?xml version="1.0" encoding="UTF-8" standalone="no"?>
<!DOCTYPE svg PUBLIC "-//W3C//DTD SVG 1.1//EN" "http://www.w3.org/Graphics/SVG/1.1/DTD/svg11.dtd"><svg width="100%"
  height="100%" viewBox="0 0 480 228" version="1.1" xmlns="http://www.w3.org/2000/svg" xmlns:xlink="http://www.w3.org/1999/xlink"
  xml:space="preserve" xmlns:serif="http://www.serif.com/" style="fill-rule:evenodd;clip-rule:evenodd;stroke-linejoin:round;stroke-miterlimit:1.41421;">
  <rect id="Plan-de-travail-noorder" serif:id="Plan de travail noorder" x="0" y="0" width="480" height="227.76" style="fill:none;" />
  <path id="b" d="M30.093,60.467l-4.996,0c0.089,-0.769 0.165,-1.705 0.228,-2.809c0.063,-1.103 0.112,-2.005 0.148,-2.703c0.035,-0.699 0.053,-1.167 0.053,-1.404l0,-26.911l4.997,0l0,14.482c1.092,-1.327 2.117,-2.291 3.075,-2.892c0.959,-0.601 2.006,-1.055 3.143,-1.362c1.138,-0.308 2.333,-0.461 3.586,-0.461c2.275,0 4.361,0.485 6.259,1.456c1.899,0.971 3.376,2.421 4.433,4.349c1.056,1.928 1.585,4.094 1.585,6.497c0,3.563 -1.102,6.522 -3.304,8.876c-2.203,2.354 -5.274,3.532 -9.214,3.532c-1.29,0 -2.498,-0.144 -3.627,-0.43c-1.128,-0.286 -2.135,-0.713 -3.022,-1.278c-0.886,-0.566 -1.858,-1.576 -2.914,-3.029l-0.161,1.698c-0.072,0.936 -0.162,1.732 -0.269,2.389Zm0.43,-11.695c0,2.655 0.734,4.835 2.202,6.539c1.469,1.705 3.528,2.557 6.179,2.557c2.435,0 4.459,-0.754 6.071,-2.263c1.611,-1.509 2.417,-3.766 2.417,-6.77c0,-3.507 -0.823,-5.942 -2.471,-7.304c-1.648,-1.362 -3.609,-2.043 -5.883,-2.043c-1.594,0 -3.076,0.373 -4.446,1.121c-1.37,0.747 -2.39,1.858 -3.062,3.332c-0.672,1.474 -1.007,3.085 -1.007,4.831Z"
    style="fill:none;stroke:#e83434;stroke-width:0.6px;" />
  <rect id="l1" x="52.604" y="27.12" width="4.996" height="33.827" style="fill:none;stroke:#e83434;stroke-width:0.6px;" />
  <path id="u" d="M52.604,60.947l4.996,0l0,23.41l-4.996,0l0,-4.086c-1.039,1.257 -2.06,2.2 -3.063,2.829c-1.003,0.629 -2.032,1.104 -3.089,1.425c-1.056,0.322 -2.212,0.482 -3.465,0.482c-2.776,0 -5.131,-0.611 -7.065,-1.834c-1.934,-1.222 -2.901,-3.685 -2.901,-7.388l0,-14.838l4.996,0l0,13.204c0,3.423 0.582,5.491 1.746,6.203c1.164,0.713 2.606,1.069 4.325,1.069c1.487,0 2.888,-0.339 4.204,-1.016c1.316,-0.678 2.364,-1.628 3.143,-2.851c0.779,-1.222 1.169,-2.923 1.169,-5.103l0,-11.506Z"
    style="fill:none;stroke:#e83434;stroke-width:0.6px;" />
  <path id="e1" d="M81.216,78.992l4.996,0l0,0.21c0,1.034 -0.528,2.089 -1.585,3.164c-1.057,1.076 -2.453,1.894 -4.19,2.453c-1.738,0.558 -3.734,0.838 -5.991,0.838c-4.566,0 -8.09,-1.153 -10.57,-3.458c-2.48,-2.306 -3.721,-5.219 -3.721,-8.74c0,-3.605 1.312,-6.591 3.936,-8.96c2.623,-2.368 6.004,-3.552 10.14,-3.552c2.275,0 4.334,0.384 6.179,1.153c1.844,0.768 3.304,1.966 4.378,3.594c1.075,1.628 1.612,3.895 1.612,6.801l0,1.299l-21.302,0c0,2.501 0.864,4.562 2.592,6.183c1.728,1.621 4.124,2.431 7.186,2.431c2.203,0 3.81,-0.331 4.822,-0.995c1.012,-0.664 1.518,-1.401 1.518,-2.211l0,-0.21Zm-15.796,-8.132l16.198,0l0,-0.461c0,-1.09 -0.335,-2.148 -1.007,-3.175c-0.671,-1.027 -1.598,-1.788 -2.78,-2.285c-1.182,-0.496 -2.561,-0.744 -4.137,-0.744c-1.862,0 -3.582,0.584 -5.157,1.75c-1.576,1.167 -2.615,2.805 -3.117,4.915Z"
    style="fill:none;stroke:#e83434;stroke-width:0.6px;" />
  <path id="h" d="M57.6,118.524l-4.996,0l0,-33.827l4.996,0l0,14.461c1.057,-1.271 2.082,-2.214 3.076,-2.829c0.994,-0.615 2.032,-1.08 3.116,-1.394c1.083,-0.314 2.288,-0.471 3.613,-0.471c1.88,0 3.568,0.3 5.063,0.901c1.496,0.601 2.655,1.484 3.479,2.651c0.824,1.167 1.236,3.035 1.236,5.606l0,14.902l-4.997,0l0,-13.225c0,-2.096 -0.179,-3.58 -0.537,-4.454c-0.358,-0.873 -1.039,-1.558 -2.042,-2.054c-1.002,-0.496 -2.149,-0.744 -3.438,-0.744c-1.468,0 -2.865,0.336 -4.19,1.006c-1.326,0.671 -2.387,1.607 -3.184,2.809c-0.797,1.201 -1.195,2.92 -1.195,5.156l0,11.506Z"
    style="fill:none;stroke:#e83434;stroke-width:0.6px;" />
  <path id="e2" d="M45.216,113.805l4.996,0l0,0.21c0,1.034 -0.528,2.089 -1.585,3.165c-1.057,1.075 -2.453,1.893 -4.19,2.452c-1.738,0.559 -3.734,0.838 -5.991,0.838c-4.566,0 -8.09,-1.153 -10.57,-3.458c-2.48,-2.306 -3.721,-5.219 -3.721,-8.74c0,-3.605 1.312,-6.591 3.936,-8.96c2.623,-2.368 6.004,-3.552 10.14,-3.552c2.275,0 4.334,0.384 6.179,1.153c1.844,0.768 3.304,1.966 4.378,3.594c1.075,1.628 1.612,3.895 1.612,6.801l0,1.3l-21.302,0c0,2.501 0.864,4.561 2.592,6.182c1.728,1.621 4.124,2.431 7.186,2.431c2.203,0 3.81,-0.331 4.822,-0.995c1.012,-0.664 1.518,-1.401 1.518,-2.211l0,-0.21Zm-15.796,-8.132l16.198,0l0,-0.461c0,-1.09 -0.335,-2.148 -1.007,-3.175c-0.671,-1.027 -1.598,-1.788 -2.78,-2.284c-1.182,-0.496 -2.561,-0.744 -4.137,-0.744c-1.862,0 -3.582,0.583 -5.157,1.75c-1.576,1.166 -2.615,2.805 -3.117,4.914Z"
    style="fill:none;stroke:#e83434;stroke-width:0.6px;" />
  <rect id="l2" x="52.8" y="118.524" width="4.996" height="33.827" style="fill:none;stroke:#e83434;stroke-width:0.6px;" />
  <path id="v" d="M40.228,175.761l-12.222,-23.41l5.372,0l9.617,18.359l9.832,-18.359l4.969,0l-12.571,23.41l-4.997,0Z"
    style="fill:none;stroke:#e83434;stroke-width:0.6px;" />
  <path id="e3" d="M78.857,170.396l4.996,0l0,0.21c0,1.033 -0.528,2.088 -1.585,3.164c-1.057,1.076 -2.453,1.893 -4.19,2.452c-1.738,0.559 -3.734,0.839 -5.991,0.839c-4.566,0 -8.09,-1.153 -10.57,-3.458c-2.48,-2.306 -3.721,-5.219 -3.721,-8.74c0,-3.605 1.312,-6.592 3.936,-8.96c2.623,-2.368 6.003,-3.552 10.14,-3.552c2.275,0 4.334,0.384 6.179,1.152c1.844,0.769 3.304,1.967 4.378,3.595c1.075,1.628 1.612,3.895 1.612,6.801l0,1.299l-21.302,0c0,2.501 0.864,4.562 2.592,6.183c1.728,1.621 4.124,2.431 7.186,2.431c2.203,0 3.81,-0.332 4.822,-0.995c1.012,-0.664 1.518,-1.401 1.518,-2.211l0,-0.21Zm-15.796,-8.132l16.198,0l0,-0.461c0,-1.09 -0.335,-2.148 -1.007,-3.175c-0.671,-1.027 -1.598,-1.789 -2.78,-2.285c-1.182,-0.496 -2.561,-0.744 -4.137,-0.744c-1.862,0 -3.582,0.584 -5.158,1.75c-1.575,1.167 -2.614,2.805 -3.116,4.915Z"
    style="fill:none;stroke:#e83434;stroke-width:0.6px;" />
  <path id="t1" d="M55.2,202.199l0,3.269c-2.436,0.461 -4.298,0.692 -5.587,0.692c-1.863,0 -3.542,-0.293 -5.037,-0.88c-1.495,-0.587 -2.633,-1.439 -3.412,-2.557c-0.779,-1.118 -1.168,-2.899 -1.168,-5.345l0,-12.03l-5.211,0l0,-3.248l5.211,0l0,-5.533l4.996,0l0,5.533l8.757,0l0,3.248l-8.757,0l0,10.92c0,2.068 0.206,3.503 0.618,4.307c0.412,0.803 1.061,1.393 1.948,1.771c0.886,0.377 1.947,0.565 3.183,0.565c0.985,0 2.471,-0.237 4.459,-0.712Z"
    style="fill:none;stroke:#e83434;stroke-width:0.6px;" />
  <path id="t2" d="M74.4,202.043l0,3.27c-2.436,0.461 -4.298,0.691 -5.587,0.691c-1.863,0 -3.542,-0.293 -5.037,-0.88c-1.495,-0.587 -2.633,-1.439 -3.412,-2.557c-0.779,-1.118 -1.168,-2.899 -1.168,-5.344l0,-12.03l-5.211,0l0,-3.249l5.211,0l0,-5.533l4.996,0l0,5.533l8.757,0l0,3.249l-8.757,0l0,10.919c0,2.068 0.206,3.503 0.618,4.307c0.412,0.803 1.061,1.394 1.948,1.771c0.886,0.377 1.947,0.566 3.183,0.566c0.985,0 2.471,-0.238 4.459,-0.713Z"
    style="fill:none;stroke:#e83434;stroke-width:0.6px;" /></svg>
