<?xml version="1.0" encoding="UTF-8" standalone="no"?>
<!DOCTYPE svg PUBLIC "-//W3C//DTD SVG 1.1//EN" "http://www.w3.org/Graphics/SVG/1.1/DTD/svg11.dtd"><svg width="100%"
  height="100%" viewBox="0 0 289 61" version="1.1" xmlns="http://www.w3.org/2000/svg" xmlns:xlink="http://www.w3.org/1999/xlink"
  xml:space="preserve" xmlns:serif="http://www.serif.com/" style="fill-rule:evenodd;clip-rule:evenodd;stroke-linejoin:round;stroke-miterlimit:1.41421;">
  <g>
    <g>
      <path d="M5.034,33.392l-4.914,0c0.088,-0.756 0.163,-1.676 0.225,-2.762c0.061,-1.086 0.11,-1.972 0.145,-2.659c0.035,-0.687 0.053,-1.148 0.053,-1.382l0,-26.469l4.914,0l0,14.245c1.075,-1.306 2.083,-2.254 3.026,-2.845c0.942,-0.591 1.972,-1.038 3.091,-1.34c1.118,-0.302 2.294,-0.453 3.527,-0.453c2.237,0 4.289,0.477 6.157,1.432c1.867,0.955 3.32,2.381 4.359,4.278c1.04,1.896 1.559,4.027 1.559,6.39c0,3.505 -1.083,6.415 -3.25,8.731c-2.166,2.316 -5.187,3.473 -9.063,3.473c-1.268,0 -2.457,-0.14 -3.566,-0.422c-1.11,-0.282 -2.101,-0.701 -2.973,-1.258c-0.872,-0.556 -1.827,-1.549 -2.867,-2.979l-0.158,1.67c-0.071,0.921 -0.159,1.704 -0.265,2.35Zm0.423,-11.503c0,2.611 0.722,4.755 2.167,6.432c1.444,1.677 3.47,2.515 6.077,2.515c2.396,0 4.386,-0.742 5.971,-2.226c1.586,-1.485 2.378,-3.704 2.378,-6.659c0,-3.449 -0.81,-5.844 -2.431,-7.184c-1.62,-1.34 -3.549,-2.01 -5.786,-2.01c-1.568,0 -3.025,0.368 -4.373,1.103c-1.347,0.735 -2.351,1.828 -3.012,3.278c-0.66,1.449 -0.991,3.033 -0.991,4.751Z"
        style="fill:none;stroke:#e83434;stroke-width:0.24px;" />
      <rect x="33.517" y="0.12" width="4.914" height="33.272" style="fill:none;stroke:#e83434;stroke-width:0.24px;" />
      <path d="M65.092,10.366l4.914,0l0,23.026l-4.914,0l0,-4.02c-1.022,1.237 -2.026,2.165 -3.012,2.783c-0.987,0.619 -2,1.086 -3.039,1.402c-1.039,0.316 -2.175,0.474 -3.408,0.474c-2.731,0 -5.047,-0.601 -6.949,-1.803c-1.903,-1.203 -2.854,-3.625 -2.854,-7.267l0,-14.595l4.915,0l0,12.987c0,3.367 0.572,5.401 1.717,6.102c1.145,0.701 2.563,1.051 4.254,1.051c1.462,0 2.84,-0.333 4.135,-1c1.295,-0.666 2.325,-1.601 3.091,-2.803c0.767,-1.203 1.15,-2.876 1.15,-5.02l0,-11.317Z"
        style="fill:none;stroke:#e83434;stroke-width:0.24px;" />
      <path d="M97.089,27.476l4.914,0l0,0.206c0,1.017 -0.519,2.055 -1.559,3.113c-1.039,1.058 -2.413,1.862 -4.121,2.412c-1.709,0.55 -3.673,0.824 -5.893,0.824c-4.491,0 -7.957,-1.133 -10.397,-3.401c-2.439,-2.268 -3.659,-5.133 -3.659,-8.596c0,-3.546 1.29,-6.484 3.871,-8.813c2.58,-2.33 5.905,-3.494 9.974,-3.494c2.237,0 4.263,0.377 6.077,1.133c1.814,0.756 3.25,1.935 4.307,3.536c1.057,1.601 1.585,3.831 1.585,6.689l0,1.278l-20.952,0c0,2.46 0.85,4.488 2.549,6.082c1.7,1.594 4.056,2.391 7.068,2.391c2.167,0 3.748,-0.326 4.743,-0.979c0.995,-0.653 1.493,-1.378 1.493,-2.175l0,-0.206Zm-15.536,-7.999l15.932,0l0,-0.453c0,-1.072 -0.33,-2.113 -0.991,-3.123c-0.66,-1.01 -1.572,-1.759 -2.734,-2.247c-1.163,-0.488 -2.519,-0.732 -4.069,-0.732c-1.832,0 -3.523,0.574 -5.073,1.721c-1.55,1.148 -2.572,2.759 -3.065,4.834Z"
        style="fill:none;stroke:#e83434;stroke-width:0.24px;" />
      <path d="M113.867,33.392l-4.915,0l0,-33.272l4.915,0l0,14.224c1.039,-1.25 2.047,-2.178 3.025,-2.783c0.978,-0.604 1.999,-1.061 3.065,-1.371c1.066,-0.309 2.25,-0.463 3.554,-0.463c1.849,0 3.51,0.295 4.98,0.886c1.471,0.591 2.612,1.46 3.422,2.608c0.81,1.147 1.215,2.985 1.215,5.514l0,14.657l-4.914,0l0,-13.008c0,-2.061 -0.176,-3.521 -0.528,-4.38c-0.353,-0.859 -1.022,-1.533 -2.009,-2.021c-0.986,-0.487 -2.113,-0.731 -3.382,-0.731c-1.444,0 -2.818,0.329 -4.121,0.989c-1.304,0.66 -2.348,1.581 -3.131,2.763c-0.784,1.181 -1.176,2.872 -1.176,5.071l0,11.317Z"
        style="fill:none;stroke:#e83434;stroke-width:0.24px;" />
      <path d="M159.815,27.476l4.914,0l0,0.206c0,1.017 -0.519,2.055 -1.559,3.113c-1.039,1.058 -2.413,1.862 -4.122,2.412c-1.708,0.55 -3.672,0.824 -5.892,0.824c-4.491,0 -7.957,-1.133 -10.397,-3.401c-2.439,-2.268 -3.659,-5.133 -3.659,-8.596c0,-3.546 1.29,-6.484 3.871,-8.813c2.58,-2.33 5.905,-3.494 9.974,-3.494c2.237,0 4.263,0.377 6.077,1.133c1.814,0.756 3.25,1.935 4.307,3.536c1.057,1.601 1.585,3.831 1.585,6.689l0,1.278l-20.953,0c0,2.46 0.85,4.488 2.55,6.082c1.7,1.594 4.056,2.391 7.068,2.391c2.167,0 3.748,-0.326 4.743,-0.979c0.995,-0.653 1.493,-1.378 1.493,-2.175l0,-0.206Zm-15.536,-7.999l15.932,0l0,-0.453c0,-1.072 -0.33,-2.113 -0.991,-3.123c-0.66,-1.01 -1.572,-1.759 -2.734,-2.247c-1.163,-0.488 -2.519,-0.732 -4.069,-0.732c-1.832,0 -3.523,0.574 -5.074,1.721c-1.55,1.148 -2.571,2.759 -3.064,4.834Z"
        style="fill:none;stroke:#e83434;stroke-width:0.24px;" />
      <rect x="171.678" y="0.12" width="4.914" height="33.272" style="fill:none;stroke:#e83434;stroke-width:0.24px;" />
      <path d="M193.133,33.392l-12.022,-23.026l5.284,0l9.459,18.058l9.671,-18.058l4.888,0l-12.366,23.026l-4.914,0Z"
        style="fill:none;stroke:#e83434;stroke-width:0.24px;" />
      <path d="M234.219,27.476l4.915,0l0,0.206c0,1.017 -0.52,2.055 -1.559,3.113c-1.04,1.058 -2.414,1.862 -4.122,2.412c-1.709,0.55 -3.673,0.824 -5.892,0.824c-4.492,0 -7.958,-1.133 -10.397,-3.401c-2.44,-2.268 -3.66,-5.133 -3.66,-8.596c0,-3.546 1.29,-6.484 3.871,-8.813c2.581,-2.33 5.905,-3.494 9.974,-3.494c2.237,0 4.263,0.377 6.077,1.133c1.815,0.756 3.25,1.935 4.307,3.536c1.057,1.601 1.586,3.831 1.586,6.689l0,1.278l-20.953,0c0,2.46 0.85,4.488 2.55,6.082c1.699,1.594 4.055,2.391 7.067,2.391c2.167,0 3.748,-0.326 4.743,-0.979c0.995,-0.653 1.493,-1.378 1.493,-2.175l0,-0.206Zm-15.536,-7.999l15.932,0l0,-0.453c0,-1.072 -0.33,-2.113 -0.99,-3.123c-0.661,-1.01 -1.573,-1.759 -2.735,-2.247c-1.163,-0.488 -2.519,-0.732 -4.069,-0.732c-1.832,0 -3.523,0.574 -5.073,1.721c-1.55,1.148 -2.572,2.759 -3.065,4.834Z"
        style="fill:none;stroke:#e83434;stroke-width:0.24px;" />
      <path d="M264.129,30.135l0,3.216c-2.396,0.454 -4.228,0.68 -5.496,0.68c-1.832,0 -3.483,-0.288 -4.954,-0.865c-1.471,-0.578 -2.589,-1.416 -3.356,-2.515c-0.766,-1.1 -1.149,-2.852 -1.149,-5.257l0,-11.833l-5.126,0l0,-3.195l5.126,0l0,-5.443l4.914,0l0,5.443l8.614,0l0,3.195l-8.614,0l0,10.74c0,2.034 0.203,3.446 0.608,4.237c0.405,0.79 1.044,1.37 1.916,1.742c0.872,0.371 1.915,0.556 3.131,0.556c0.969,0 2.431,-0.234 4.386,-0.701Z"
        style="fill:none;stroke:#e83434;stroke-width:0.24px;" />
      <path d="M288.12,30.135l0,3.216c-2.396,0.454 -4.228,0.68 -5.496,0.68c-1.832,0 -3.483,-0.288 -4.954,-0.865c-1.471,-0.578 -2.589,-1.416 -3.356,-2.515c-0.766,-1.1 -1.149,-2.852 -1.149,-5.257l0,-11.833l-5.126,0l0,-3.195l5.126,0l0,-5.443l4.915,0l0,5.443l8.613,0l0,3.195l-8.613,0l0,10.74c0,2.034 0.202,3.446 0.607,4.237c0.405,0.79 1.044,1.37 1.916,1.742c0.872,0.371 1.916,0.556 3.131,0.556c0.969,0 2.431,-0.234 4.386,-0.701Z"
        style="fill:none;stroke:#e83434;stroke-width:0.24px;" />
    </g>
  </g>
  <g>
    <path d="M109.77,55.545c0.081,0.076 0.122,0.204 0.122,0.385c0,0.171 -0.043,0.314 -0.129,0.428c-0.085,0.114 -0.204,0.171 -0.357,0.171c-0.39,0 -0.682,-0.057 -0.877,-0.171c-0.195,-0.114 -0.374,-0.328 -0.535,-0.642c-0.4,0.647 -1.142,0.97 -2.227,0.97c-1.103,0 -1.917,-0.335 -2.44,-1.006c-0.523,-0.67 -0.785,-1.505 -0.785,-2.504c0,-0.666 0.133,-1.28 0.4,-1.841c0.266,-0.561 0.656,-1.009 1.17,-1.342c0.514,-0.333 1.113,-0.499 1.798,-0.499c0.438,0 0.825,0.086 1.163,0.257c0.338,0.171 0.592,0.404 0.764,0.699l0.042,-0.357c0.039,-0.342 0.243,-0.513 0.614,-0.513c0.247,0 0.423,0.054 0.528,0.164c0.105,0.109 0.148,0.245 0.129,0.406c-0.096,0.714 -0.153,1.251 -0.172,1.613c-0.028,0.342 -0.043,0.79 -0.043,1.341l0,0.942c0,0.495 0.027,0.838 0.079,1.028c0.052,0.19 0.193,0.299 0.421,0.328c0.143,0.019 0.254,0.067 0.335,0.143Zm-2.219,-3.254c0,-0.39 -0.083,-0.709 -0.25,-0.956c-0.166,-0.247 -0.371,-0.428 -0.613,-0.542c-0.243,-0.115 -0.488,-0.172 -0.735,-0.172c-0.428,0 -0.792,0.126 -1.092,0.378c-0.299,0.253 -0.523,0.574 -0.671,0.964c-0.147,0.39 -0.221,0.794 -0.221,1.213c0,0.637 0.15,1.191 0.45,1.662c0.299,0.471 0.768,0.707 1.405,0.707c0.505,0 0.914,-0.129 1.228,-0.386c0.314,-0.256 0.475,-0.627 0.485,-1.113c0.009,-0.428 0.014,-1.013 0.014,-1.755Z"
      style="fill:#616161;fill-rule:nonzero;" />
    <path d="M118.183,54.503c0.076,0.504 0.131,0.899 0.164,1.184c0.033,0.286 0.05,0.562 0.05,0.828c0,0.704 -0.145,1.327 -0.435,1.87c-0.29,0.542 -0.7,0.965 -1.228,1.27c-0.528,0.304 -1.139,0.456 -1.833,0.456c-0.533,0 -1.023,-0.104 -1.47,-0.314c-0.447,-0.209 -0.804,-0.494 -1.071,-0.856c-0.266,-0.361 -0.399,-0.751 -0.399,-1.17c0,-0.362 0.223,-0.542 0.671,-0.542c0.285,0 0.456,0.138 0.513,0.414c0.095,0.437 0.293,0.763 0.593,0.977c0.299,0.214 0.677,0.321 1.134,0.321c0.685,0 1.211,-0.209 1.577,-0.628c0.366,-0.418 0.549,-1.027 0.549,-1.826c0,-0.257 -0.023,-0.543 -0.071,-0.857c-0.219,0.267 -0.516,0.483 -0.892,0.65c-0.376,0.166 -0.806,0.249 -1.291,0.249c-0.685,0 -1.292,-0.159 -1.82,-0.478c-0.528,-0.318 -0.935,-0.749 -1.22,-1.291c-0.285,-0.542 -0.428,-1.132 -0.428,-1.77c0,-0.656 0.14,-1.265 0.421,-1.826c0.281,-0.562 0.68,-1.006 1.199,-1.335c0.518,-0.328 1.11,-0.492 1.776,-0.492c0.742,0 1.328,0.185 1.756,0.557c0.038,-0.115 0.123,-0.324 0.257,-0.628c0.095,-0.191 0.252,-0.286 0.47,-0.286c0.181,0 0.355,0.05 0.521,0.15c0.167,0.1 0.255,0.226 0.264,0.378c0,0.067 -0.004,0.114 -0.014,0.143c-0.162,0.514 -0.257,0.837 -0.285,0.97l0.485,3.482l0.057,0.4Zm-2.148,0.485c0.395,-0.228 0.63,-0.476 0.707,-0.742c-0.057,-0.542 -0.167,-1.289 -0.329,-2.24c-0.009,-0.096 -0.047,-0.338 -0.114,-0.728c-0.085,-0.181 -0.273,-0.352 -0.564,-0.514c-0.29,-0.162 -0.616,-0.243 -0.977,-0.243c-0.4,0 -0.756,0.107 -1.07,0.322c-0.314,0.214 -0.559,0.509 -0.735,0.884c-0.176,0.376 -0.264,0.792 -0.264,1.249c0,0.656 0.183,1.213 0.549,1.67c0.366,0.456 0.892,0.685 1.577,0.685c0.419,0 0.825,-0.114 1.22,-0.343Z"
      style="fill:#616161;fill-rule:nonzero;" />
    <path d="M121.472,56.13c-0.575,-0.333 -1.008,-0.78 -1.298,-1.342c-0.29,-0.561 -0.436,-1.179 -0.436,-1.855c0,-0.694 0.157,-1.325 0.471,-1.891c0.314,-0.566 0.757,-1.013 1.328,-1.341c0.57,-0.328 1.222,-0.492 1.955,-0.492c0.647,0 1.229,0.13 1.748,0.392c0.518,0.262 0.925,0.63 1.22,1.106c0.295,0.476 0.442,1.018 0.442,1.627c0,0.323 -0.047,0.554 -0.142,0.692c-0.095,0.138 -0.291,0.212 -0.585,0.221l-5.152,0.071c0,0.314 0.1,0.638 0.299,0.971c0.2,0.333 0.488,0.611 0.864,0.835c0.376,0.223 0.816,0.335 1.32,0.335c0.361,0 0.668,-0.05 0.92,-0.15c0.252,-0.1 0.455,-0.219 0.607,-0.357c0.152,-0.137 0.333,-0.321 0.542,-0.549c0.105,-0.105 0.238,-0.157 0.4,-0.157c0.152,0 0.297,0.06 0.435,0.178c0.138,0.119 0.207,0.255 0.207,0.407c0,0.124 -0.043,0.243 -0.129,0.357c-0.266,0.381 -0.623,0.716 -1.07,1.006c-0.447,0.29 -1.07,0.435 -1.869,0.435c-0.809,0 -1.501,-0.166 -2.077,-0.499Zm4.089,-3.896c0.057,0 0.097,-0.017 0.121,-0.05c0.024,-0.033 0.036,-0.083 0.036,-0.15c0,-0.504 -0.212,-0.916 -0.635,-1.234c-0.424,-0.319 -0.954,-0.478 -1.591,-0.478c-0.486,0 -0.916,0.114 -1.292,0.342c-0.376,0.228 -0.666,0.502 -0.87,0.821c-0.205,0.318 -0.307,0.597 -0.307,0.835l4.538,-0.086Z"
      style="fill:#616161;fill-rule:nonzero;" />
    <path d="M134.202,50.129c0.423,0.576 0.635,1.434 0.635,2.576l0,3.296c0,0.181 -0.062,0.317 -0.186,0.407c-0.123,0.09 -0.29,0.136 -0.499,0.136c-0.209,0 -0.385,-0.043 -0.528,-0.129c-0.143,-0.085 -0.214,-0.214 -0.214,-0.385l0.014,-3.339c0,-0.79 -0.088,-1.363 -0.264,-1.72c-0.176,-0.357 -0.488,-0.535 -0.935,-0.535c-0.856,0 -1.412,0.685 -1.669,2.055c-0.086,0.418 -0.129,0.923 -0.129,1.512l0.014,2.027c0,0.171 -0.061,0.302 -0.185,0.392c-0.124,0.091 -0.29,0.136 -0.5,0.136c-0.228,0 -0.406,-0.05 -0.535,-0.15c-0.128,-0.1 -0.192,-0.226 -0.192,-0.378c0,-0.951 -0.019,-2.055 -0.057,-3.311c-0.019,-0.742 -0.029,-1.256 -0.029,-1.541c-0.009,-0.209 -0.04,-0.374 -0.093,-0.492c-0.052,-0.119 -0.15,-0.298 -0.292,-0.536c-0.038,-0.095 -0.057,-0.176 -0.057,-0.242c0,-0.143 0.081,-0.276 0.242,-0.4c0.162,-0.123 0.319,-0.185 0.471,-0.185c0.162,0 0.319,0.104 0.471,0.314c0.257,0.371 0.385,0.708 0.385,1.013l0,0.171c0.172,-0.447 0.44,-0.818 0.807,-1.113c0.366,-0.295 0.858,-0.442 1.477,-0.442c0.808,0 1.424,0.287 1.848,0.863Z"
      style="fill:#616161;fill-rule:nonzero;" />
    <path d="M138.105,56.087c-0.542,-0.304 -0.959,-0.718 -1.249,-1.242c-0.29,-0.523 -0.435,-1.113 -0.435,-1.769c0,-0.685 0.15,-1.325 0.449,-1.92c0.3,-0.594 0.728,-1.067 1.285,-1.419c0.556,-0.352 1.206,-0.528 1.948,-0.528c0.799,0 1.474,0.192 2.026,0.577c0.552,0.386 0.937,0.859 1.156,1.42c0.057,0.115 0.086,0.224 0.086,0.329c0,0.218 -0.152,0.371 -0.457,0.456c-0.114,0.019 -0.185,0.029 -0.214,0.029c-0.143,0 -0.262,-0.041 -0.357,-0.121c-0.095,-0.081 -0.185,-0.203 -0.271,-0.364c-0.152,-0.333 -0.39,-0.616 -0.713,-0.849c-0.324,-0.234 -0.714,-0.35 -1.171,-0.35c-0.466,0 -0.877,0.124 -1.234,0.371c-0.357,0.247 -0.633,0.58 -0.828,0.999c-0.195,0.419 -0.292,0.87 -0.292,1.356c0,0.694 0.197,1.26 0.592,1.698c0.395,0.437 0.958,0.656 1.691,0.656c0.466,0 0.861,-0.09 1.185,-0.271c0.323,-0.181 0.563,-0.409 0.72,-0.685c0.157,-0.276 0.245,-0.556 0.264,-0.842c0,-0.123 0.05,-0.226 0.15,-0.307c0.1,-0.081 0.24,-0.121 0.421,-0.121c0.228,0 0.402,0.045 0.521,0.136c0.119,0.09 0.178,0.249 0.178,0.478c-0.009,0.437 -0.145,0.865 -0.406,1.284c-0.262,0.419 -0.654,0.766 -1.178,1.042c-0.523,0.276 -1.17,0.414 -1.941,0.414c-0.742,0 -1.384,-0.153 -1.926,-0.457Z"
      style="fill:#616161;fill-rule:nonzero;" />
    <path d="M146.632,56.13c-0.576,-0.333 -1.009,-0.78 -1.299,-1.342c-0.29,-0.561 -0.435,-1.179 -0.435,-1.855c0,-0.694 0.157,-1.325 0.471,-1.891c0.314,-0.566 0.756,-1.013 1.327,-1.341c0.571,-0.328 1.222,-0.492 1.955,-0.492c0.647,0 1.23,0.13 1.748,0.392c0.519,0.262 0.925,0.63 1.22,1.106c0.295,0.476 0.443,1.018 0.443,1.627c0,0.323 -0.048,0.554 -0.143,0.692c-0.095,0.138 -0.29,0.212 -0.585,0.221l-5.152,0.071c0,0.314 0.1,0.638 0.3,0.971c0.2,0.333 0.487,0.611 0.863,0.835c0.376,0.223 0.816,0.335 1.32,0.335c0.362,0 0.669,-0.05 0.921,-0.15c0.252,-0.1 0.454,-0.219 0.606,-0.357c0.152,-0.137 0.333,-0.321 0.542,-0.549c0.105,-0.105 0.238,-0.157 0.4,-0.157c0.152,0 0.297,0.06 0.435,0.178c0.138,0.119 0.207,0.255 0.207,0.407c0,0.124 -0.043,0.243 -0.128,0.357c-0.267,0.381 -0.623,0.716 -1.07,1.006c-0.448,0.29 -1.071,0.435 -1.87,0.435c-0.809,0 -1.501,-0.166 -2.076,-0.499Zm4.088,-3.896c0.057,0 0.098,-0.017 0.122,-0.05c0.023,-0.033 0.035,-0.083 0.035,-0.15c0,-0.504 -0.211,-0.916 -0.635,-1.234c-0.423,-0.319 -0.954,-0.478 -1.591,-0.478c-0.485,0 -0.916,0.114 -1.292,0.342c-0.375,0.228 -0.666,0.502 -0.87,0.821c-0.205,0.318 -0.307,0.597 -0.307,0.835l4.538,-0.086Z"
      style="fill:#616161;fill-rule:nonzero;" />
    <path d="M160.203,55.901c-0.309,-0.418 -0.583,-1.008 -0.82,-1.769c-0.219,-0.676 -0.402,-1.43 -0.55,-2.262c-0.147,-0.832 -0.221,-1.487 -0.221,-1.962c0,-0.276 0.055,-0.474 0.164,-0.592c0.109,-0.119 0.283,-0.179 0.521,-0.179c0.438,0 0.671,0.181 0.699,0.542c0.067,0.743 0.133,1.337 0.2,1.784c0.067,0.447 0.186,1.028 0.357,1.741c0.142,0.581 0.269,1.014 0.378,1.299c0.109,0.285 0.216,0.428 0.321,0.428c0.095,0 0.24,-0.338 0.435,-1.013c0.195,-0.676 0.44,-1.608 0.735,-2.797c0.067,-0.238 0.155,-0.419 0.264,-0.542c0.11,-0.124 0.264,-0.186 0.464,-0.186c0.19,0 0.34,0.059 0.45,0.178c0.109,0.119 0.206,0.307 0.292,0.564c0.171,0.504 0.319,0.966 0.443,1.384c0.247,0.828 0.444,1.43 0.592,1.806c0.147,0.375 0.283,0.563 0.406,0.563c0.096,0 0.188,-0.147 0.279,-0.442c0.09,-0.295 0.192,-0.742 0.307,-1.342c0.161,-0.827 0.268,-1.443 0.321,-1.848c0.052,-0.404 0.092,-0.915 0.121,-1.534c0.019,-0.38 0.247,-0.571 0.685,-0.571c0.266,0 0.449,0.069 0.549,0.207c0.1,0.138 0.15,0.36 0.15,0.664c0,0.438 -0.059,1.051 -0.178,1.841c-0.119,0.79 -0.264,1.513 -0.435,2.169c-0.448,1.665 -1.009,2.497 -1.684,2.497c-0.467,0 -0.902,-0.385 -1.306,-1.156c-0.404,-0.77 -0.73,-1.802 -0.978,-3.096c-0.18,1.284 -0.44,2.314 -0.777,3.089c-0.338,0.776 -0.74,1.163 -1.206,1.163c-0.343,0 -0.669,-0.209 -0.978,-0.628Z"
      style="fill:#616161;fill-rule:nonzero;" />
    <path d="M171.149,56.13c-0.576,-0.333 -1.009,-0.78 -1.299,-1.342c-0.29,-0.561 -0.435,-1.179 -0.435,-1.855c0,-0.694 0.157,-1.325 0.471,-1.891c0.314,-0.566 0.756,-1.013 1.327,-1.341c0.571,-0.328 1.223,-0.492 1.955,-0.492c0.647,0 1.23,0.13 1.748,0.392c0.519,0.262 0.925,0.63 1.22,1.106c0.295,0.476 0.443,1.018 0.443,1.627c0,0.323 -0.048,0.554 -0.143,0.692c-0.095,0.138 -0.29,0.212 -0.585,0.221l-5.152,0.071c0,0.314 0.1,0.638 0.3,0.971c0.2,0.333 0.488,0.611 0.863,0.835c0.376,0.223 0.816,0.335 1.32,0.335c0.362,0 0.669,-0.05 0.921,-0.15c0.252,-0.1 0.454,-0.219 0.606,-0.357c0.153,-0.137 0.333,-0.321 0.543,-0.549c0.104,-0.105 0.237,-0.157 0.399,-0.157c0.152,0 0.298,0.06 0.435,0.178c0.138,0.119 0.207,0.255 0.207,0.407c0,0.124 -0.042,0.243 -0.128,0.357c-0.266,0.381 -0.623,0.716 -1.07,1.006c-0.448,0.29 -1.071,0.435 -1.87,0.435c-0.808,0 -1.501,-0.166 -2.076,-0.499Zm4.088,-3.896c0.057,0 0.098,-0.017 0.122,-0.05c0.023,-0.033 0.035,-0.083 0.035,-0.15c0,-0.504 -0.211,-0.916 -0.635,-1.234c-0.423,-0.319 -0.953,-0.478 -1.591,-0.478c-0.485,0 -0.916,0.114 -1.291,0.342c-0.376,0.228 -0.666,0.502 -0.871,0.821c-0.204,0.318 -0.307,0.597 -0.307,0.835l4.538,-0.086Z"
      style="fill:#616161;fill-rule:nonzero;" />
    <path d="M183.95,49.729c0.547,0.3 0.975,0.728 1.284,1.285c0.309,0.556 0.464,1.206 0.464,1.948c0,0.789 -0.171,1.455 -0.514,1.998c-0.342,0.542 -0.79,0.946 -1.341,1.213c-0.552,0.266 -1.147,0.399 -1.784,0.399c-0.543,0 -1.054,-0.116 -1.534,-0.349c-0.481,-0.233 -0.807,-0.478 -0.978,-0.735c-0.076,0.19 -0.193,0.364 -0.35,0.521c-0.156,0.157 -0.297,0.264 -0.421,0.321c-0.095,0.047 -0.199,0.071 -0.313,0.071c-0.172,0 -0.319,-0.064 -0.443,-0.193c-0.124,-0.128 -0.185,-0.268 -0.185,-0.421c0,-0.142 0.057,-0.266 0.171,-0.371c0.028,-0.028 0.088,-0.078 0.178,-0.15c0.091,-0.071 0.16,-0.168 0.207,-0.292c0.057,-0.171 0.086,-0.452 0.086,-0.842l-0.029,-1.384c0,-0.229 -0.009,-0.78 -0.028,-1.656c-0.019,-1.198 -0.029,-1.993 -0.029,-2.383c-0.019,-1.75 -0.047,-3.087 -0.085,-4.01c-0.01,-0.181 0.054,-0.324 0.192,-0.428c0.138,-0.105 0.312,-0.157 0.521,-0.157c0.19,0 0.35,0.047 0.478,0.143c0.129,0.095 0.198,0.223 0.207,0.385c0.067,1.256 0.105,2.607 0.114,4.053l0.029,1.441c0.209,-0.247 0.504,-0.452 0.885,-0.614c0.38,-0.161 0.837,-0.242 1.37,-0.242c0.685,0 1.301,0.15 1.848,0.449Zm-0.828,5.445c0.338,-0.181 0.614,-0.459 0.828,-0.835c0.214,-0.376 0.321,-0.844 0.321,-1.406c0,-0.799 -0.21,-1.42 -0.628,-1.862c-0.419,-0.443 -0.971,-0.664 -1.656,-0.664c-0.475,0 -0.901,0.119 -1.277,0.357c-0.376,0.238 -0.654,0.5 -0.835,0.785l0,1.07c0,0.438 0.015,0.871 0.043,1.299c0.019,0.266 0.131,0.516 0.336,0.749c0.204,0.233 0.466,0.421 0.784,0.564c0.319,0.142 0.654,0.214 1.006,0.214c0.381,0 0.74,-0.091 1.078,-0.271Z"
      style="fill:#616161;fill-rule:nonzero;" />
  </g>
</svg>
